<svg xmlns="http://www.w3.org/2000/svg" viewBox="0 0 24 24" width="24" height="24">
  <path fill="#0081FB" d="M22 12C22 6.477 17.523 2 12 2S2 6.477 2 12C2 16.991 5.657 21.132 10.438 21.879V14.89H7.898V12h2.54V9.797c0-2.506 1.492-3.89 3.777-3.89 1.094 0 2.238.195 2.238.195v2.46h-1.26c-1.243 0-1.63.771-1.63 1.562V12h2.773l-.443 2.89h-2.33v6.989C18.343 21.132 22 16.991 22 12z"/>
  <path fill="#1977F3" d="M15.893 14.89l.443-2.89h-2.773v-1.876c0-.791.387-1.562 1.63-1.562h1.26V6.102s-1.144-.195-2.238-.195c-2.285 0-3.777 1.384-3.777 3.89V12H7.898v2.89h2.54v6.989a10.058 10.058 0 003.124 0V14.89h2.33z"/>
</svg>